<svg width="51" height="51" viewBox="0 0 51 51" fill="none" xmlns="http://www.w3.org/2000/svg">
<g id="Component 10">
<circle id="Ellipse 27" cx="25.2656" cy="25.2656" r="25.2656" fill="#EBF4FF"/>
<path id="!" d="M21.9646 27.5988C21.7535 25.6974 21.5809 23.8059 21.4466 21.9241C21.3123 20.0227 21.2835 18.0429 21.3602 15.9847C21.3986 14.985 21.7727 14.1814 22.4826 13.5737C23.1924 12.9464 24.123 12.6328 25.2741 12.6328C26.4252 12.6328 27.3557 12.9464 28.0656 13.5737C28.7755 14.1814 29.1496 14.985 29.188 15.9847C29.2455 18.0429 29.2072 20.0227 29.0729 21.9241C28.9386 23.8059 28.7659 25.6974 28.5548 27.5988C28.4589 28.5005 28.1423 29.2258 27.6051 29.7746C27.0871 30.3235 26.3101 30.5979 25.2741 30.5979C24.2381 30.5979 23.4515 30.3235 22.9143 29.7746C22.3771 29.2258 22.0605 28.5005 21.9646 27.5988ZM21.4466 35.9786C21.4466 34.7437 21.7919 33.7636 22.4826 33.0383C23.1924 32.3131 24.123 31.9504 25.2741 31.9504C26.4444 31.9504 27.3749 32.3131 28.0656 33.0383C28.7563 33.7636 29.1016 34.7437 29.1016 35.9786C29.1016 36.4883 29.0057 36.9489 28.8138 37.3605C28.622 37.7918 28.3534 38.1642 28.008 38.4778C27.6819 38.7915 27.279 39.0365 26.7994 39.2129C26.3389 39.3893 25.8305 39.4775 25.2741 39.4775C24.7177 39.4775 24.1997 39.3893 23.7201 39.2129C23.2596 39.0365 22.8567 38.7915 22.5114 38.4778C22.1852 38.1642 21.9262 37.7918 21.7343 37.3605C21.5425 36.9489 21.4466 36.4883 21.4466 35.9786Z" fill="white"/>
</g>
</svg>
