<svg width="7" height="6" viewBox="0 0 7 6" fill="none" xmlns="http://www.w3.org/2000/svg">
<g id="fi-rr-comment" clip-path="url(#clip0_2210_1913)">
<path id="Vector" d="M6.35986 2.81189C6.32344 2.2269 6.1154 1.66527 5.76138 1.19625C5.40736 0.727226 4.92284 0.371314 4.36755 0.17239C3.81227 -0.0265348 3.21049 -0.0597757 2.6364 0.0767648C2.06231 0.213305 1.54102 0.513658 1.13679 0.940796C0.732551 1.36793 0.463046 1.90318 0.361496 2.48056C0.259946 3.05793 0.33079 3.65219 0.565295 4.19007C0.7998 4.72795 1.18771 5.18594 1.68121 5.50758C2.17471 5.82922 2.75223 6.00044 3.34255 6.00014H5.10086C5.43467 5.99981 5.7547 5.86801 5.99074 5.63366C6.22677 5.39931 6.35952 5.08156 6.35986 4.75014V2.81189ZM5.85626 4.75014C5.85626 4.94905 5.77667 5.13982 5.63501 5.28047C5.49334 5.42112 5.30121 5.50014 5.10086 5.50014H3.34255C2.98725 5.49998 2.63597 5.42547 2.31161 5.28147C1.98726 5.13747 1.69712 4.9272 1.46011 4.66439C1.22195 4.40171 1.04311 4.09151 0.935585 3.75459C0.828057 3.41767 0.794327 3.06181 0.836655 2.71089C0.903491 2.15738 1.15397 1.64169 1.5486 1.24512C1.94323 0.848556 2.45957 0.593668 3.01622 0.520641C3.12481 0.507129 3.23413 0.500282 3.34356 0.500141C3.93037 0.498552 4.49902 0.702117 4.94978 1.07514C5.21305 1.29238 5.42914 1.56043 5.58495 1.86305C5.74077 2.16567 5.83307 2.49655 5.85626 2.83564V4.75014Z" fill="#919191"/>
<path id="Vector_2" d="M2.32992 2.25H3.33712C3.4039 2.25 3.46795 2.22366 3.51517 2.17678C3.56239 2.12989 3.58892 2.0663 3.58892 2C3.58892 1.9337 3.56239 1.87011 3.51517 1.82322C3.46795 1.77634 3.4039 1.75 3.33712 1.75H2.32992C2.26314 1.75 2.1991 1.77634 2.15188 1.82322C2.10465 1.87011 2.07812 1.9337 2.07812 2C2.07812 2.0663 2.10465 2.12989 2.15188 2.17678C2.1991 2.22366 2.26314 2.25 2.32992 2.25Z" fill="#919191"/>
<path id="Vector_3" d="M4.34431 2.75H2.32992C2.26314 2.75 2.1991 2.77634 2.15188 2.82322C2.10465 2.87011 2.07812 2.9337 2.07812 3C2.07812 3.06631 2.10465 3.12989 2.15188 3.17678C2.1991 3.22366 2.26314 3.25 2.32992 3.25H4.34431C4.41109 3.25 4.47514 3.22366 4.52236 3.17678C4.56958 3.12989 4.59611 3.06631 4.59611 3C4.59611 2.9337 4.56958 2.87011 4.52236 2.82322C4.47514 2.77634 4.41109 2.75 4.34431 2.75Z" fill="#919191"/>
<path id="Vector_4" d="M4.34431 3.75H2.32992C2.26314 3.75 2.1991 3.77634 2.15188 3.82322C2.10465 3.87011 2.07812 3.9337 2.07812 4C2.07812 4.06631 2.10465 4.12989 2.15188 4.17678C2.1991 4.22366 2.26314 4.25 2.32992 4.25H4.34431C4.41109 4.25 4.47514 4.22366 4.52236 4.17678C4.56958 4.12989 4.59611 4.06631 4.59611 4C4.59611 3.9337 4.56958 3.87011 4.52236 3.82322C4.47514 3.77634 4.41109 3.75 4.34431 3.75Z" fill="#919191"/>
</g>
<defs>
<clipPath id="clip0_2210_1913">
<rect width="6.04317" height="6" fill="white" transform="translate(0.316406)"/>
</clipPath>
</defs>
</svg>
