<svg width="17" height="16" viewBox="0 0 17 16" fill="none" xmlns="http://www.w3.org/2000/svg">
<g id="fi-rr-camera" clip-path="url(#clip0_1376_4135)">
<path id="Vector" d="M13.1667 2.66667H12.828L11.372 0.778667C11.1844 0.537204 10.9442 0.341611 10.6698 0.206703C10.3953 0.0717943 10.0938 0.0011087 9.788 0L7.212 0C6.9062 0.0011087 6.60466 0.0717943 6.33022 0.206703C6.05579 0.341611 5.81565 0.537204 5.628 0.778667L4.172 2.66667H3.83333C2.9496 2.66773 2.10237 3.01925 1.47748 3.64415C0.852588 4.26904 0.501059 5.11627 0.5 6L0.5 12.6667C0.501059 13.5504 0.852588 14.3976 1.47748 15.0225C2.10237 15.6474 2.9496 15.9989 3.83333 16H13.1667C14.0504 15.9989 14.8976 15.6474 15.5225 15.0225C16.1474 14.3976 16.4989 13.5504 16.5 12.6667V6C16.4989 5.11627 16.1474 4.26904 15.5225 3.64415C14.8976 3.01925 14.0504 2.66773 13.1667 2.66667ZM6.684 1.59333C6.74645 1.5127 6.82646 1.44738 6.91796 1.40232C7.00945 1.35727 7.11001 1.33367 7.212 1.33333H9.788C9.88997 1.33377 9.9905 1.35741 10.082 1.40246C10.1735 1.4475 10.2535 1.51278 10.316 1.59333L11.144 2.66667H5.856L6.684 1.59333ZM15.1667 12.6667C15.1667 13.1971 14.956 13.7058 14.5809 14.0809C14.2058 14.456 13.6971 14.6667 13.1667 14.6667H3.83333C3.3029 14.6667 2.79419 14.456 2.41912 14.0809C2.04405 13.7058 1.83333 13.1971 1.83333 12.6667V6C1.83333 5.46957 2.04405 4.96086 2.41912 4.58579C2.79419 4.21071 3.3029 4 3.83333 4H13.1667C13.6971 4 14.2058 4.21071 14.5809 4.58579C14.956 4.96086 15.1667 5.46957 15.1667 6V12.6667Z" fill="#D2E7FF"/>
<path id="Vector_2" d="M8.5 5.33301C7.70888 5.33301 6.93552 5.5676 6.27772 6.00713C5.61992 6.44666 5.10723 7.07137 4.80448 7.80227C4.50173 8.53318 4.42252 9.33745 4.57686 10.1134C4.7312 10.8893 5.11216 11.602 5.67157 12.1614C6.23099 12.7208 6.94372 13.1018 7.71964 13.2562C8.49557 13.4105 9.29983 13.3313 10.0307 13.0285C10.7616 12.7258 11.3864 12.2131 11.8259 11.5553C12.2654 10.8975 12.5 10.1241 12.5 9.33301C12.4989 8.27247 12.0772 7.25567 11.3273 6.50575C10.5773 5.75583 9.56054 5.33407 8.5 5.33301ZM8.5 11.9997C7.97259 11.9997 7.45701 11.8433 7.01848 11.5503C6.57995 11.2572 6.23816 10.8408 6.03632 10.3535C5.83449 9.86623 5.78168 9.33005 5.88457 8.81277C5.98747 8.29548 6.24144 7.82033 6.61438 7.44739C6.98732 7.07445 7.46248 6.82047 7.97976 6.71758C8.49704 6.61469 9.03322 6.6675 9.52049 6.86933C10.0078 7.07116 10.4242 7.41296 10.7173 7.85149C11.0103 8.29002 11.1667 8.80559 11.1667 9.33301C11.1667 10.0403 10.8857 10.7185 10.3856 11.2186C9.88552 11.7187 9.20725 11.9997 8.5 11.9997Z" fill="#D2E7FF"/>
</g>
<defs>
<clipPath id="clip0_1376_4135">
<rect width="16" height="16" fill="white" transform="translate(0.5)"/>
</clipPath>
</defs>
</svg>
