<svg width="24" height="24" viewBox="0 0 24 24" fill="none" xmlns="http://www.w3.org/2000/svg">
<g id="fi-rr-caret-left">
<path id="Vector" d="M13.2907 18.5899L7.71071 12.9999C7.52446 12.8126 7.41992 12.5591 7.41992 12.2949C7.41992 12.0307 7.52446 11.7773 7.71071 11.5899L13.2907 5.99992C13.4306 5.85889 13.6093 5.76271 13.804 5.72364C13.9988 5.68457 14.2008 5.70438 14.3842 5.78055C14.5676 5.85671 14.7242 5.98578 14.834 6.1513C14.9438 6.31682 15.0019 6.51129 15.0007 6.70992V17.8799C15.0019 18.0785 14.9438 18.273 14.834 18.4385C14.7242 18.6041 14.5676 18.7331 14.3842 18.8093C14.2008 18.8855 13.9988 18.9053 13.804 18.8662C13.6093 18.8271 13.4306 18.7309 13.2907 18.5899Z" fill="#6D9CD5"/>
</g>
</svg>
