<svg width="14" height="10" viewBox="0 0 14 10" fill="none" xmlns="http://www.w3.org/2000/svg">
<g id="Group">
<path id="Vector" d="M5.05636 9.82232C4.5305 9.82267 4.02636 9.61263 3.65636 9.239L1.16718 6.75399C0.678857 6.26598 0.678623 5.47454 1.16663 4.98622C1.16683 4.98602 1.16702 4.98583 1.16718 4.98563C1.6553 4.49766 2.44655 4.49766 2.93468 4.98563L5.05636 7.10645L11.0664 1.09645C11.5545 0.608476 12.3457 0.608476 12.8339 1.09645C13.3222 1.58445 13.3224 2.3759 12.8344 2.86422C12.8342 2.86442 12.834 2.86461 12.8339 2.86477L6.45554 9.24314C6.08515 9.61521 5.58136 9.82376 5.05636 9.82232Z" fill="white"/>
</g>
</svg>
