<svg width="34" height="34" viewBox="0 0 34 34" fill="none" xmlns="http://www.w3.org/2000/svg">
<g id="Group">
<path id="Vector" fill-rule="evenodd" clip-rule="evenodd" d="M23 12.5C23 14.0913 22.3679 15.6174 21.2426 16.7426C20.1174 17.8679 18.5913 18.5 17 18.5C15.4087 18.5 13.8826 17.8679 12.7574 16.7426C11.6321 15.6174 11 14.0913 11 12.5C11 10.9087 11.6321 9.38258 12.7574 8.25736C13.8826 7.13214 15.4087 6.5 17 6.5C18.5913 6.5 20.1174 7.13214 21.2426 8.25736C22.3679 9.38258 23 10.9087 23 12.5ZM20 12.5C20 13.2956 19.6839 14.0587 19.1213 14.6213C18.5587 15.1839 17.7956 15.5 17 15.5C16.2044 15.5 15.4413 15.1839 14.8787 14.6213C14.3161 14.0587 14 13.2956 14 12.5C14 11.7044 14.3161 10.9413 14.8787 10.3787C15.4413 9.81607 16.2044 9.5 17 9.5C17.7956 9.5 18.5587 9.81607 19.1213 10.3787C19.6839 10.9413 20 11.7044 20 12.5Z" fill="#FDFDFD"/>
<path id="Vector_2" fill-rule="evenodd" clip-rule="evenodd" d="M17 0.5C7.8875 0.5 0.5 7.8875 0.5 17C0.5 26.1125 7.8875 33.5 17 33.5C26.1125 33.5 33.5 26.1125 33.5 17C33.5 7.8875 26.1125 0.5 17 0.5ZM3.5 17C3.5 20.135 4.5695 23.021 6.362 25.313C7.62085 23.6598 9.24485 22.3201 11.1071 21.3985C12.9694 20.4768 15.0196 19.9982 17.0975 20C19.1485 19.9981 21.1729 20.4643 23.0164 21.3632C24.8599 22.2621 26.4739 23.5699 27.7355 25.187C29.0352 23.4824 29.9103 21.4928 30.2883 19.3829C30.6664 17.2729 30.5366 15.1033 29.9097 13.0535C29.2828 11.0037 28.1768 9.13257 26.6832 7.59506C25.1896 6.05754 23.3514 4.89779 21.3206 4.21176C19.2898 3.52574 17.1248 3.33316 15.0048 3.64996C12.8848 3.96676 10.8707 4.78384 9.12915 6.03358C7.38762 7.28332 5.96872 8.92981 4.98984 10.8368C4.01097 12.7438 3.50027 14.8565 3.5 17ZM17 30.5C13.9009 30.5047 10.8954 29.4385 8.492 27.482C9.4594 26.0971 10.747 24.9664 12.2453 24.186C13.7436 23.4057 15.4082 22.9988 17.0975 23C18.7657 22.9987 20.4102 23.3954 21.8944 24.1571C23.3785 24.9189 24.6595 26.0238 25.631 27.38C23.2089 29.4001 20.1539 30.5044 17 30.5Z" fill="#FDFDFD"/>
</g>
</svg>
