<svg width="20" height="18" viewBox="0 0 20 18" fill="none" xmlns="http://www.w3.org/2000/svg">
<g clip-path="url(#clip0_1734_6064)">
<path d="M10 8.99961C10.4945 8.99961 10.9778 8.84126 11.3889 8.54458C11.8 8.2479 12.1205 7.82622 12.3097 7.33286C12.4989 6.8395 12.5484 6.29662 12.452 5.77287C12.3555 5.24912 12.1174 4.76802 11.7678 4.39042C11.4181 4.01282 10.9727 3.75567 10.4877 3.65149C10.0028 3.54731 9.50011 3.60078 9.04329 3.80514C8.58648 4.00949 8.19603 4.35556 7.92133 4.79957C7.64662 5.24358 7.5 5.7656 7.5 6.29961C7.50066 7.01548 7.76427 7.70182 8.23296 8.20801C8.70166 8.7142 9.33716 8.9989 10 8.99961ZM10 4.49961C10.3296 4.49961 10.6519 4.60518 10.926 4.80297C11.2 5.00075 11.4137 5.28187 11.5398 5.61078C11.6659 5.93969 11.699 6.30161 11.6346 6.65077C11.5703 6.99994 11.4116 7.32067 11.1785 7.5724C10.9454 7.82414 10.6485 7.99557 10.3252 8.06502C10.0018 8.13448 9.66674 8.09883 9.36219 7.96259C9.05765 7.82636 8.79735 7.59565 8.61422 7.29964C8.43108 7.00363 8.33333 6.65562 8.33333 6.29961C8.33333 5.82222 8.50893 5.36438 8.82149 5.02682C9.13405 4.68925 9.55797 4.49961 10 4.49961Z" fill="#6D9CD5"/>
<path d="M10 9.89941C9.00578 9.90061 8.05259 10.3277 7.34957 11.0869C6.64655 11.8462 6.2511 12.8757 6.25 13.9494C6.25 14.0688 6.2939 14.1832 6.37204 14.2676C6.45018 14.352 6.55616 14.3994 6.66667 14.3994C6.77717 14.3994 6.88315 14.352 6.96129 14.2676C7.03943 14.1832 7.08333 14.0688 7.08333 13.9494C7.08333 13.114 7.39062 12.3128 7.93761 11.722C8.48459 11.1313 9.22645 10.7994 10 10.7994C10.7735 10.7994 11.5154 11.1313 12.0624 11.722C12.6094 12.3128 12.9167 13.114 12.9167 13.9494C12.9167 14.0688 12.9606 14.1832 13.0387 14.2676C13.1168 14.352 13.2228 14.3994 13.3333 14.3994C13.4438 14.3994 13.5498 14.352 13.628 14.2676C13.7061 14.1832 13.75 14.0688 13.75 13.9494C13.7489 12.8757 13.3535 11.8462 12.6504 11.0869C11.9474 10.3277 10.9942 9.90061 10 9.89941Z" fill="#6D9CD5"/>
</g>
<rect x="0.5" y="0.5" width="19" height="17" rx="8.5" stroke="#6D9CD5"/>
<defs>
<clipPath id="clip0_1734_6064">
<rect width="10" height="10.8" fill="white" transform="translate(5 3.59961)"/>
</clipPath>
</defs>
</svg>
