<svg width="24" height="24" viewBox="0 0 24 24" fill="none" xmlns="http://www.w3.org/2000/svg">
<g id="fluent-mdl2:chat-bot">
<path id="Vector" d="M9 12H7.5V10.5H9V12ZM15 12H13.5V10.5H15V12ZM21 10.5V13.5H19.5V17.25C19.5 17.5625 19.4414 17.8555 19.3242 18.1289C19.207 18.4023 19.0469 18.6406 18.8438 18.8438C18.6406 19.0469 18.4023 19.207 18.1289 19.3242C17.8555 19.4414 17.5625 19.5 17.25 19.5H14.1562L9 23.9062V19.5H5.25C4.9375 19.5 4.64453 19.4414 4.37109 19.3242C4.09766 19.207 3.85938 19.0469 3.65625 18.8438C3.45312 18.6406 3.29297 18.4023 3.17578 18.1289C3.05859 17.8555 3 17.5625 3 17.25V13.5H1.5V10.5H3V8.25C3 7.9375 3.05859 7.64453 3.17578 7.37109C3.29297 7.09766 3.45312 6.85938 3.65625 6.65625C3.85938 6.45312 4.09766 6.29297 4.37109 6.17578C4.64453 6.05859 4.9375 6 5.25 6H10.5V3.55078C10.2734 3.41797 10.0938 3.23438 9.96094 3C9.82812 2.76562 9.75781 2.51562 9.75 2.25C9.75 2.03906 9.78906 1.84375 9.86719 1.66406C9.94531 1.48438 10.0508 1.32812 10.1836 1.19531C10.3164 1.0625 10.4766 0.953125 10.6641 0.867188C10.8516 0.78125 11.0469 0.742188 11.25 0.75C11.4609 0.75 11.6562 0.789062 11.8359 0.867188C12.0156 0.945312 12.1719 1.05078 12.3047 1.18359C12.4375 1.31641 12.5469 1.47656 12.6328 1.66406C12.7188 1.85156 12.7578 2.04687 12.75 2.25C12.75 2.51562 12.6836 2.76562 12.5508 3C12.418 3.23438 12.2344 3.41797 12 3.55078V6H17.25C17.5625 6 17.8555 6.05859 18.1289 6.17578C18.4023 6.29297 18.6406 6.45312 18.8438 6.65625C19.0469 6.85938 19.207 7.09766 19.3242 7.37109C19.4414 7.64453 19.5 7.9375 19.5 8.25V10.5H21ZM18 8.25C18 8.04687 17.9258 7.87109 17.7773 7.72266C17.6289 7.57422 17.4531 7.5 17.25 7.5H5.25C5.04688 7.5 4.87109 7.57422 4.72266 7.72266C4.57422 7.87109 4.5 8.04687 4.5 8.25V17.25C4.5 17.4531 4.57422 17.6289 4.72266 17.7773C4.87109 17.9258 5.04688 18 5.25 18H10.5V20.6484L13.5938 18H17.25C17.4531 18 17.6289 17.9258 17.7773 17.7773C17.9258 17.6289 18 17.4531 18 17.25V8.25ZM8.02734 13.6641C8.45703 14.0938 8.94922 14.4219 9.50391 14.6484C10.0586 14.875 10.6406 14.9922 11.25 15C11.8594 15 12.4414 14.8867 12.9961 14.6602C13.5508 14.4336 14.043 14.1016 14.4727 13.6641L15.5273 14.7305C14.957 15.3008 14.3047 15.7383 13.5703 16.043C12.8359 16.3477 12.0625 16.5 11.25 16.5C10.4453 16.5 9.67578 16.3477 8.94141 16.043C8.20703 15.7383 7.55078 15.3008 6.97266 14.7305L8.02734 13.6641Z" fill="black"/>
</g>
</svg>
