<svg width="16" height="20" viewBox="0 0 16 20" fill="none" xmlns="http://www.w3.org/2000/svg">
<path id="Vector" d="M13.6 10.4C14.2365 10.4 14.847 10.6529 15.2971 11.1029C15.7471 11.553 16 12.1635 16 12.8V13.6C16 16.7536 13.024 20 8 20C2.976 20 0 16.7536 0 13.6V12.8C0 12.1635 0.252856 11.553 0.702944 11.1029C1.15303 10.6529 1.76348 10.4 2.4 10.4H13.6ZM13.6 12H2.4C2.18783 12 1.98434 12.0843 1.83431 12.2343C1.68429 12.3843 1.6 12.5878 1.6 12.8V13.6C1.6 15.9008 3.8912 18.4 8 18.4C12.1088 18.4 14.4 15.9008 14.4 13.6V12.8C14.4 12.5878 14.3157 12.3843 14.1657 12.2343C14.0157 12.0843 13.8122 12 13.6 12ZM8 0C9.16695 0 10.2861 0.46357 11.1113 1.28873C11.9364 2.11389 12.4 3.23305 12.4 4.4C12.4 5.56695 11.9364 6.68611 11.1113 7.51127C10.2861 8.33643 9.16695 8.8 8 8.8C6.83305 8.8 5.71389 8.33643 4.88873 7.51127C4.06357 6.68611 3.6 5.56695 3.6 4.4C3.6 3.23305 4.06357 2.11389 4.88873 1.28873C5.71389 0.46357 6.83305 0 8 0ZM8 1.6C7.25739 1.6 6.5452 1.895 6.0201 2.4201C5.495 2.9452 5.2 3.65739 5.2 4.4C5.2 5.14261 5.495 5.8548 6.0201 6.3799C6.5452 6.905 7.25739 7.2 8 7.2C8.74261 7.2 9.4548 6.905 9.9799 6.3799C10.505 5.8548 10.8 5.14261 10.8 4.4C10.8 3.65739 10.505 2.9452 9.9799 2.4201C9.4548 1.895 8.74261 1.6 8 1.6Z" fill="black"/>
</svg>
